<svg width="80" height="80" viewBox="0 0 80 80" fill="none" xmlns="http://www.w3.org/2000/svg">
<mask id="mask0_459_3246" style="mask-type:alpha" maskUnits="userSpaceOnUse" x="0" y="0" width="80" height="80">
<circle cx="40" cy="40" r="40" fill="#1D2A4A"/>
</mask>
<g mask="url(#mask0_459_3246)">
<circle cx="40" cy="40" r="40" fill="#1D2A4A"/>
<rect x="62.1566" y="6.66357" width="16" height="78.6667" transform="rotate(45 62.1566 6.66357)" fill="#0B1633"/>
<rect x="30.6666" y="-14.6438" width="26.6667" height="64" rx="13.3333" transform="rotate(45 30.6666 -14.6438)" fill="#0B1633"/>
<rect x="75.9215" y="30.6111" width="26.6667" height="64" rx="13.3333" transform="rotate(45 75.9215 30.6111)" fill="#0B1633"/>
<circle cx="40" cy="40" r="39.2" stroke="url(#paint0_linear_459_3246)" stroke-width="1.6"/>
<path d="M40 20L45.9014 31.8775L59.0211 33.8197L49.5486 43.1025L51.7557 56.1803L40 50.04L28.2443 56.1803L30.4514 43.1025L20.9789 33.8197L34.0986 31.8775L40 20Z" fill="url(#paint1_linear_459_3246)"/>
<path d="M40.338 46C40.098 46 39.888 45.91 39.708 45.73C39.528 45.55 39.438 45.334 39.438 45.082V34.102L38.124 34.66C37.92 34.744 37.728 34.786 37.548 34.786C37.284 34.786 37.062 34.702 36.882 34.534C36.714 34.366 36.63 34.15 36.63 33.886C36.63 33.694 36.678 33.52 36.774 33.364C36.87 33.208 37.02 33.094 37.224 33.022L40.032 32.014C40.092 31.99 40.152 31.972 40.212 31.96C40.272 31.948 40.326 31.942 40.374 31.942C40.65 31.942 40.866 32.032 41.022 32.212C41.19 32.38 41.274 32.602 41.274 32.878V45.082C41.274 45.334 41.184 45.55 41.004 45.73C40.824 45.91 40.602 46 40.338 46Z" fill="white"/>
</g>
<defs>
<linearGradient id="paint0_linear_459_3246" x1="40" y1="-5.96046e-07" x2="60" y2="87.5" gradientUnits="userSpaceOnUse">
<stop stop-color="#FCEAC6"/>
<stop offset="1" stop-color="#FCEAC4"/>
</linearGradient>
<linearGradient id="paint1_linear_459_3246" x1="40" y1="20" x2="40" y2="60" gradientUnits="userSpaceOnUse">
<stop stop-color="#B07858"/>
<stop offset="1" stop-color="#A76B49"/>
</linearGradient>
</defs>
</svg>
